# xmcd
#
# Track frame offsets:
#	150
#	26151
#	46967
#	73648
#	97683
#	128244
#	151755
#	174919
#	199654
#	224677
#	253369
#	270970
#
# Disc length: 3956 seconds
#
# Revision: 0
# Processed by: cddbd v1.4PL0 Copyright (c) Steve Scherf et al.
# Submitted via: EasyCDDAExtractor 4.6.9.1
#
DISCID=a30f720c
DTITLE=Raymond Froggatt - Coast to Coast
DYEAR=1900
DGENRE=Country
TTITLE0=Coast to coast
TTITLE1=One fine day
TTITLE2=Serenade
TTITLE3=Four more days three more nights
TTITLE4=Secondhand strangers
TTITLE5=The breeze passed by
TTITLE6=No two rivers
TTITLE7=My time
TTITLE8=Yesterday and love
TTITLE9=Made in Taiwan
TTITLE10=Through it all
TTITLE11=Danger
EXTD=
EXTT0=
EXTT1=
EXTT2=
EXTT3=
EXTT4=
EXTT5=
EXTT6=
EXTT7=
EXTT8=
EXTT9=
EXTT10=
EXTT11=
PLAYORDER=
